<svg xmlns="http://www.w3.org/2000/svg" xmlns:xlink="http://www.w3.org/1999/xlink" width="500" zoomAndPan="magnify" viewBox="0 0 375 374.999991" height="500" preserveAspectRatio="xMidYMid meet" version="1.0"><defs><g/><clipPath id="d518df0b74"><path d="M 37.5 77.1875 L 205.5 77.1875 L 205.5 290 L 37.5 290 Z M 37.5 77.1875 " clip-rule="nonzero"/></clipPath><clipPath id="7404f2532c"><path d="M 285 157.503906 L 324.140625 157.503906 L 324.140625 198 L 285 198 Z M 285 157.503906 " clip-rule="nonzero"/></clipPath><clipPath id="ce0d385768"><path d="M 70.957031 197 L 317 197 L 317 257 L 70.957031 257 Z M 70.957031 197 " clip-rule="nonzero"/></clipPath></defs><g clip-path="url(#d518df0b74)"><path fill="#eeba2b" d="M 205.164062 82.332031 L 205.164062 77.1875 C 183.257812 77.1875 161.230469 77.1875 139.324219 77.1875 L 139.324219 82.332031 C 141.359375 81.253906 143.636719 80.65625 146.027344 80.65625 C 153.929688 80.65625 160.394531 87.121094 160.394531 95.023438 L 160.394531 208.261719 C 160.394531 284.515625 61.039062 297.804688 37.695312 232.921875 C 45.957031 266.082031 75.761719 289.304688 109.757812 289.304688 C 156.800781 289.304688 183.976562 252.554688 183.976562 208.144531 L 183.976562 95.023438 C 183.976562 87.121094 190.441406 80.65625 198.339844 80.65625 C 200.855469 80.65625 203.128906 81.253906 205.164062 82.332031 Z M 37.933594 197.128906 C 55.292969 179.175781 82.824219 175.105469 104.609375 187.316406 C 120.414062 196.171875 133.9375 174.507812 118.855469 164.449219 C 88.089844 143.863281 45.714844 160.980469 37.933594 197.128906 Z M 37.933594 197.128906 " fill-opacity="1" fill-rule="nonzero"/></g><g clip-path="url(#7404f2532c)"><path fill="#f3b624" d="M 324.464844 177.347656 C 307.054688 178.625 306.019531 179.660156 304.742188 197.066406 C 303.464844 179.660156 302.429688 178.625 285.019531 177.347656 C 302.429688 176.070312 303.464844 175.035156 304.742188 157.628906 C 306.019531 175.035156 307.054688 176.070312 324.464844 177.347656 " fill-opacity="1" fill-rule="nonzero"/></g><path fill="#f3b624" d="M 308.652344 207.449219 C 297.386719 208.273438 296.714844 208.945312 295.890625 220.207031 C 295.0625 208.945312 294.394531 208.273438 283.128906 207.449219 C 294.394531 206.621094 295.0625 205.949219 295.890625 194.6875 C 296.714844 205.949219 297.386719 206.621094 308.652344 207.449219 " fill-opacity="1" fill-rule="nonzero"/><g clip-path="url(#ce0d385768)"><path fill="#f3b624" d="M 315.183594 197.066406 C 315.183594 197.066406 315.1875 197.355469 315.195312 197.914062 C 315.210938 198.46875 315.199219 199.300781 315.203125 200.371094 C 315.183594 202.519531 315.0625 205.667969 314.519531 209.578125 C 313.96875 213.476562 312.957031 218.160156 310.847656 223.042969 C 308.738281 227.902344 305.449219 232.921875 300.628906 236.945312 C 300.019531 237.4375 299.417969 237.953125 298.765625 238.414062 C 298.441406 238.648438 298.128906 238.894531 297.789062 239.113281 C 297.46875 239.328125 297.152344 239.542969 296.828125 239.757812 C 296.449219 239.992188 296.070312 240.230469 295.691406 240.46875 C 295.351562 240.660156 295.011719 240.855469 294.667969 241.046875 C 293.941406 241.445312 293.199219 241.828125 292.4375 242.183594 C 289.402344 243.632812 286.070312 244.742188 282.542969 245.472656 C 279.015625 246.210938 275.296875 246.609375 271.472656 246.613281 C 267.652344 246.636719 263.726562 246.328125 259.792969 245.644531 C 251.734375 244.28125 243.507812 241.917969 235.207031 239.007812 C 233.132812 238.289062 231.050781 237.511719 228.964844 236.726562 C 226.871094 235.949219 224.773438 235.152344 222.667969 234.328125 C 218.453125 232.699219 214.226562 230.957031 209.925781 229.308594 C 205.628906 227.644531 201.296875 225.980469 196.90625 224.429688 C 192.503906 222.910156 188.058594 221.472656 183.5625 220.226562 C 182.433594 219.921875 181.316406 219.609375 180.183594 219.339844 C 179.050781 219.0625 177.917969 218.789062 176.785156 218.542969 L 175.933594 218.351562 L 175.453125 218.242188 L 175.042969 218.160156 L 173.40625 217.824219 C 172.34375 217.597656 171.167969 217.390625 170.023438 217.179688 C 165.476562 216.351562 160.996094 215.8125 156.542969 215.449219 C 152.09375 215.082031 147.695312 214.992188 143.398438 215.113281 C 142.320312 215.140625 141.253906 215.175781 140.191406 215.242188 C 139.128906 215.289062 138.074219 215.367188 137.027344 215.449219 C 134.933594 215.617188 132.871094 215.867188 130.84375 216.132812 C 122.726562 217.253906 115.207031 219.238281 108.558594 221.746094 C 101.898438 224.25 96.109375 227.257812 91.277344 230.324219 C 86.433594 233.386719 82.535156 236.496094 79.523438 239.238281 C 76.496094 241.972656 74.375 244.371094 72.972656 246.023438 C 72.273438 246.851562 71.777344 247.519531 71.445312 247.96875 C 71.113281 248.421875 70.953125 248.660156 70.953125 248.660156 C 70.953125 248.660156 71.777344 247.851562 73.429688 246.480469 C 75.074219 245.101562 77.589844 243.210938 80.910156 241.035156 C 84.238281 238.871094 88.40625 236.460938 93.375 234.164062 C 98.34375 231.875 104.117188 229.710938 110.5625 228.023438 C 113.792969 227.207031 117.175781 226.453125 120.710938 225.898438 C 124.246094 225.355469 127.917969 224.933594 131.703125 224.703125 C 133.597656 224.601562 135.515625 224.527344 137.460938 224.515625 C 138.433594 224.503906 139.410156 224.496094 140.394531 224.515625 C 141.378906 224.519531 142.367188 224.550781 143.359375 224.589844 C 147.335938 224.742188 151.386719 225.089844 155.492188 225.621094 C 159.585938 226.144531 163.753906 226.921875 167.886719 227.804688 C 168.910156 228.03125 169.914062 228.242188 171.019531 228.519531 L 172.644531 228.914062 L 173.050781 229.011719 C 172.96875 228.996094 173.085938 229.023438 173.09375 229.023438 L 173.1875 229.050781 L 173.382812 229.101562 L 174.164062 229.308594 C 176.242188 229.84375 178.316406 230.484375 180.40625 231.101562 C 184.582031 232.363281 188.765625 233.828125 192.960938 235.390625 C 197.164062 236.925781 201.386719 238.574219 205.625 240.257812 C 209.859375 241.957031 214.152344 243.613281 218.460938 245.261719 C 220.617188 246.085938 222.785156 246.886719 224.957031 247.679688 C 227.140625 248.441406 229.324219 249.199219 231.53125 249.90625 C 240.316406 252.800781 249.335938 255.015625 258.300781 256.109375 C 262.878906 256.636719 267.425781 256.777344 271.875 256.464844 C 276.316406 256.144531 280.65625 255.390625 284.769531 254.199219 C 288.875 252.976562 292.75 251.3125 296.246094 249.25 C 297.113281 248.730469 297.960938 248.179688 298.78125 247.617188 C 299.203125 247.316406 299.621094 247.015625 300.039062 246.71875 C 300.402344 246.441406 300.757812 246.164062 301.113281 245.886719 L 301.234375 245.796875 L 301.304688 245.738281 L 301.726562 245.390625 L 302.285156 244.925781 C 302.664062 244.625 303.011719 244.289062 303.371094 243.96875 C 304.089844 243.335938 304.753906 242.65625 305.410156 241.992188 C 307.992188 239.261719 310.09375 236.328125 311.695312 233.359375 C 313.296875 230.386719 314.429688 227.410156 315.226562 224.574219 C 316.78125 218.878906 317.058594 213.804688 316.9375 209.707031 C 316.878906 207.65625 316.714844 205.835938 316.507812 204.265625 C 316.316406 202.699219 316.082031 201.375 315.890625 200.308594 C 315.691406 199.242188 315.507812 198.433594 315.375 197.890625 C 315.25 197.347656 315.183594 197.066406 315.183594 197.066406 " fill-opacity="1" fill-rule="nonzero"/></g><path fill="#df8c16" d="M 320.820312 202.582031 C 320.820312 202.582031 320.8125 203.375 320.800781 204.855469 C 320.792969 206.332031 320.710938 208.5 320.5625 211.238281 C 320.402344 213.972656 320.074219 217.285156 319.511719 221.019531 C 318.933594 224.753906 318.101562 228.929688 316.75 233.308594 C 315.417969 237.683594 313.582031 242.28125 311 246.714844 C 308.4375 251.152344 305.125 255.417969 301.027344 259.074219 C 298.96875 260.890625 296.738281 262.574219 294.34375 264.074219 C 293.75 264.449219 293.148438 264.828125 292.519531 265.164062 C 291.890625 265.5 291.292969 265.882812 290.640625 266.183594 C 290 266.503906 289.355469 266.828125 288.710938 267.148438 C 288.054688 267.445312 287.394531 267.742188 286.730469 268.035156 C 284.058594 269.167969 281.261719 270.09375 278.414062 270.910156 C 275.542969 271.667969 272.617188 272.316406 269.640625 272.757812 C 263.699219 273.726562 257.605469 274.023438 251.585938 274.027344 C 250.082031 274.050781 248.578125 273.96875 247.085938 273.933594 C 245.589844 273.921875 244.097656 273.796875 242.617188 273.734375 C 239.65625 273.554688 236.726562 273.300781 233.839844 272.996094 C 228.078125 272.375 222.503906 271.597656 217.230469 270.683594 C 211.953125 269.773438 206.96875 268.820312 202.378906 267.828125 C 201.226562 267.585938 200.101562 267.351562 199.003906 267.117188 C 197.90625 266.871094 196.832031 266.628906 195.789062 266.390625 C 194.742188 266.15625 193.722656 265.929688 192.730469 265.707031 C 191.738281 265.472656 190.777344 265.246094 189.847656 265.027344 C 186.117188 264.15625 182.863281 263.363281 180.183594 262.710938 C 177.5 262.042969 175.394531 261.523438 173.957031 261.167969 C 172.515625 260.824219 171.746094 260.640625 171.746094 260.640625 C 171.746094 260.640625 172.460938 260.972656 173.808594 261.597656 C 174.484375 261.90625 175.316406 262.28125 176.296875 262.726562 C 177.273438 263.175781 178.402344 263.6875 179.683594 264.210938 C 180.960938 264.742188 182.375 265.335938 183.914062 265.980469 C 185.449219 266.644531 187.148438 267.253906 188.945312 267.960938 C 190.742188 268.675781 192.679688 269.359375 194.722656 270.085938 C 196.757812 270.832031 198.925781 271.539062 201.1875 272.28125 C 203.449219 273.042969 205.835938 273.722656 208.300781 274.464844 C 209.527344 274.851562 210.796875 275.160156 212.082031 275.511719 C 213.367188 275.847656 214.664062 276.226562 215.996094 276.539062 C 221.3125 277.878906 226.988281 279.054688 232.929688 279.988281 C 235.898438 280.472656 238.941406 280.835938 242.035156 281.144531 C 245.128906 281.449219 248.277344 281.667969 251.464844 281.738281 C 257.839844 281.914062 264.375 281.621094 270.878906 280.609375 C 274.125 280.097656 277.355469 279.363281 280.542969 278.492188 C 283.722656 277.582031 286.828125 276.421875 289.839844 275.078125 C 292.851562 273.738281 295.71875 272.101562 298.40625 270.277344 C 301.097656 268.453125 303.605469 266.414062 305.851562 264.1875 C 310.367188 259.75 313.808594 254.621094 316.277344 249.492188 C 317.503906 246.917969 318.523438 244.347656 319.328125 241.816406 C 320.117188 239.28125 320.742188 236.804688 321.203125 234.410156 C 322.140625 229.621094 322.476562 225.183594 322.558594 221.277344 C 322.632812 217.367188 322.402344 213.976562 322.132812 211.207031 C 321.875 208.433594 321.496094 206.28125 321.253906 204.816406 C 321.128906 204.085938 321.011719 203.527344 320.9375 203.152344 C 320.859375 202.777344 320.820312 202.582031 320.820312 202.582031 " fill-opacity="1" fill-rule="nonzero"/><g fill="#ffffff" fill-opacity="1"><g transform="translate(205.361403, 106.609456)"><g><path d="M 16.234375 0.71875 L 14.859375 -17.796875 C 14.566406 -14.671875 14.019531 -11.753906 13.21875 -9.046875 C 12.414062 -6.347656 11.503906 -4.257812 10.484375 -2.78125 C 9.460938 -1.3125 8.414062 -0.28125 7.34375 0.3125 C 6.28125 0.90625 5.226562 1.203125 4.1875 1.203125 C 3.550781 1.203125 3.0625 1.070312 2.71875 0.8125 C 2.382812 0.5625 2.21875 0.25 2.21875 -0.125 C 2.21875 -0.425781 2.335938 -0.691406 2.578125 -0.921875 C 2.828125 -1.148438 3.144531 -1.265625 3.53125 -1.265625 C 3.800781 -1.265625 4.195312 -1.203125 4.71875 -1.078125 C 5.1875 -0.953125 5.578125 -0.890625 5.890625 -0.890625 C 6.421875 -0.890625 6.976562 -1.09375 7.5625 -1.5 C 8.445312 -2.09375 9.320312 -3.160156 10.1875 -4.703125 C 11.0625 -6.242188 11.835938 -8.394531 12.515625 -11.15625 C 13.203125 -13.914062 13.628906 -16.609375 13.796875 -19.234375 C 11.191406 -19.234375 9.078125 -18.585938 7.453125 -17.296875 C 6.148438 -16.253906 5.5 -15.097656 5.5 -13.828125 C 5.5 -13.265625 5.8125 -12.585938 6.4375 -11.796875 C 6.769531 -11.378906 6.9375 -11.035156 6.9375 -10.765625 C 6.9375 -10.472656 6.835938 -10.226562 6.640625 -10.03125 C 6.453125 -9.832031 6.226562 -9.734375 5.96875 -9.734375 C 5.519531 -9.734375 5.125 -9.988281 4.78125 -10.5 C 4.3125 -11.175781 4.078125 -11.976562 4.078125 -12.90625 C 4.078125 -14.207031 4.515625 -15.457031 5.390625 -16.65625 C 6.265625 -17.851562 7.476562 -18.765625 9.03125 -19.390625 C 10.59375 -20.015625 12.414062 -20.335938 14.5 -20.359375 C 15.625 -20.359375 16.523438 -20.457031 17.203125 -20.65625 C 17.171875 -19.625 17.15625 -19.070312 17.15625 -19 C 17.15625 -18.894531 17.171875 -18.65625 17.203125 -18.28125 L 18.21875 -5.21875 C 20.976562 -10.039062 23.679688 -14.015625 26.328125 -17.140625 C 28.191406 -19.347656 29.816406 -20.84375 31.203125 -21.625 C 30.410156 -19.445312 29.5625 -16.570312 28.65625 -13 L 26.5625 -4.75 C 26.445312 -4.289062 26.289062 -3.617188 26.09375 -2.734375 L 25.6875 -0.890625 C 26.5625 -0.679688 27.359375 -0.578125 28.078125 -0.578125 C 28.660156 -0.578125 29.285156 -0.648438 29.953125 -0.796875 L 29.734375 0.203125 C 29.148438 0.304688 28.695312 0.359375 28.375 0.359375 C 27.90625 0.359375 27.226562 0.304688 26.34375 0.203125 C 25.613281 0.109375 24.96875 0.0625 24.40625 0.0625 C 23.8125 0.0625 23.132812 0.175781 22.375 0.40625 C 23.007812 -1.238281 23.671875 -3.457031 24.359375 -6.25 L 25.6875 -11.515625 C 26.25 -13.785156 26.734375 -15.34375 27.140625 -16.1875 C 26.222656 -15.144531 24.8125 -13.226562 22.90625 -10.4375 C 21.363281 -8.195312 19.640625 -5.351562 17.734375 -1.90625 Z M 16.234375 0.71875 "/></g></g></g><g fill="#ffffff" fill-opacity="1"><g transform="translate(234.948397, 106.609456)"><g><path d="M 11.53125 -14.46875 C 12.65625 -14.46875 13.585938 -14.019531 14.328125 -13.125 C 15.078125 -12.226562 15.453125 -10.984375 15.453125 -9.390625 C 15.453125 -6.847656 14.554688 -4.5625 12.765625 -2.53125 C 10.972656 -0.507812 9.082031 0.5 7.09375 0.5 C 5.863281 0.5 4.875 0.0976562 4.125 -0.703125 C 3.375 -1.503906 3 -2.597656 3 -3.984375 C 3 -6.398438 3.6875 -8.628906 5.0625 -10.671875 C 6.789062 -13.203125 8.945312 -14.46875 11.53125 -14.46875 Z M 10.0625 -13.171875 C 9.09375 -13.171875 8.148438 -12.472656 7.234375 -11.078125 C 6.316406 -9.691406 5.859375 -7.769531 5.859375 -5.3125 C 5.859375 -3.820312 6.140625 -2.648438 6.703125 -1.796875 C 7.117188 -1.160156 7.671875 -0.84375 8.359375 -0.84375 C 9.328125 -0.84375 10.207031 -1.4375 11 -2.625 C 12 -4.175781 12.5 -6.097656 12.5 -8.390625 C 12.5 -10.109375 12.265625 -11.332031 11.796875 -12.0625 C 11.335938 -12.800781 10.757812 -13.171875 10.0625 -13.171875 Z M 10.0625 -13.171875 "/></g></g></g><g fill="#ffffff" fill-opacity="1"><g transform="translate(249.036626, 106.609456)"><g><path d="M 16.234375 -3.5625 L 16.71875 -2.90625 C 15.1875 -1.613281 14.046875 -0.753906 13.296875 -0.328125 C 12.265625 0.253906 11.453125 0.546875 10.859375 0.546875 C 10.578125 0.546875 10.347656 0.46875 10.171875 0.3125 C 10.003906 0.164062 9.921875 -0.00390625 9.921875 -0.203125 C 9.921875 -0.398438 9.984375 -0.722656 10.109375 -1.171875 L 10.71875 -3.265625 C 9.34375 -1.785156 8.195312 -0.78125 7.28125 -0.25 C 6.363281 0.269531 5.535156 0.53125 4.796875 0.53125 C 4.191406 0.53125 3.679688 0.265625 3.265625 -0.265625 C 2.859375 -0.796875 2.65625 -1.578125 2.65625 -2.609375 C 2.65625 -4.242188 3.210938 -6.117188 4.328125 -8.234375 C 5.441406 -10.347656 6.679688 -11.910156 8.046875 -12.921875 C 9.421875 -13.941406 10.675781 -14.453125 11.8125 -14.453125 C 12.070312 -14.453125 12.453125 -14.410156 12.953125 -14.328125 C 13.492188 -16.566406 14.007812 -18.195312 14.5 -19.21875 C 15 -20.25 15.632812 -21.132812 16.40625 -21.875 C 17.1875 -22.625 18.078125 -23.203125 19.078125 -23.609375 C 20.085938 -24.015625 21.03125 -24.21875 21.90625 -24.21875 C 22.363281 -24.21875 22.726562 -24.097656 23 -23.859375 C 23.28125 -23.617188 23.421875 -23.316406 23.421875 -22.953125 C 23.421875 -22.597656 23.289062 -22.304688 23.03125 -22.078125 C 22.78125 -21.859375 22.4375 -21.75 22 -21.75 C 21.71875 -21.75 21.1875 -21.804688 20.40625 -21.921875 C 19.625 -22.035156 19.085938 -22.09375 18.796875 -22.09375 C 18.398438 -22.09375 18.050781 -21.96875 17.75 -21.71875 C 17.445312 -21.46875 17.15625 -20.9375 16.875 -20.125 C 16.695312 -19.613281 16.28125 -17.96875 15.625 -15.1875 L 13.171875 -4.796875 C 12.890625 -3.566406 12.75 -2.753906 12.75 -2.359375 C 12.75 -1.921875 12.914062 -1.703125 13.25 -1.703125 C 13.457031 -1.703125 13.695312 -1.773438 13.96875 -1.921875 C 14.363281 -2.140625 15.117188 -2.6875 16.234375 -3.5625 Z M 12.59375 -12.4375 C 11.675781 -12.644531 11.03125 -12.75 10.65625 -12.75 C 9.882812 -12.75 9.128906 -12.445312 8.390625 -11.84375 C 7.660156 -11.238281 6.953125 -10.070312 6.265625 -8.34375 C 5.585938 -6.613281 5.25 -5.101562 5.25 -3.8125 C 5.25 -3.226562 5.40625 -2.75 5.71875 -2.375 C 6.03125 -2.007812 6.390625 -1.828125 6.796875 -1.828125 C 7.273438 -1.828125 7.828125 -2.035156 8.453125 -2.453125 C 9.328125 -3.085938 10.023438 -3.859375 10.546875 -4.765625 C 10.859375 -5.335938 11.273438 -6.742188 11.796875 -8.984375 Z M 12.59375 -12.4375 "/></g></g></g><g fill="#ffffff" fill-opacity="1"><g transform="translate(264.535398, 106.609456)"><g><path d="M 12.015625 -4.3125 L 12.578125 -3.5625 C 9.765625 -0.882812 7.351562 0.453125 5.34375 0.453125 C 4.53125 0.453125 3.910156 0.175781 3.484375 -0.375 C 3.054688 -0.925781 2.84375 -1.8125 2.84375 -3.03125 C 2.84375 -5.476562 3.585938 -7.921875 5.078125 -10.359375 C 6.753906 -13.117188 8.753906 -14.5 11.078125 -14.5 C 11.890625 -14.5 12.507812 -14.296875 12.9375 -13.890625 C 13.375 -13.484375 13.59375 -12.925781 13.59375 -12.21875 C 13.59375 -11.46875 13.332031 -10.726562 12.8125 -10 C 12.300781 -9.28125 11.378906 -8.535156 10.046875 -7.765625 C 9.378906 -7.378906 7.957031 -6.695312 5.78125 -5.71875 C 5.675781 -5.09375 5.625 -4.5 5.625 -3.9375 C 5.625 -3.125 5.753906 -2.554688 6.015625 -2.234375 C 6.273438 -1.910156 6.648438 -1.75 7.140625 -1.75 C 7.609375 -1.75 8.125 -1.882812 8.6875 -2.15625 C 9.445312 -2.507812 10.554688 -3.226562 12.015625 -4.3125 Z M 5.984375 -6.8125 C 7.828125 -7.632812 9.21875 -8.523438 10.15625 -9.484375 C 10.78125 -10.148438 11.09375 -10.804688 11.09375 -11.453125 C 11.09375 -11.953125 10.960938 -12.347656 10.703125 -12.640625 C 10.453125 -12.929688 10.117188 -13.078125 9.703125 -13.078125 C 9.273438 -13.078125 8.863281 -12.914062 8.46875 -12.59375 C 7.925781 -12.164062 7.472656 -11.523438 7.109375 -10.671875 C 6.578125 -9.410156 6.203125 -8.125 5.984375 -6.8125 Z M 5.984375 -6.8125 "/></g></g></g><g fill="#ffffff" fill-opacity="1"><g transform="translate(276.50781, 106.609456)"><g><path d="M 6.171875 0 L 3.609375 0 L 4.8125 -4.625 C 5.394531 -6.894531 5.90625 -9.050781 6.34375 -11.09375 C 6.445312 -11.601562 6.5 -11.921875 6.5 -12.046875 C 6.5 -12.316406 6.375 -12.453125 6.125 -12.453125 C 5.945312 -12.453125 5.679688 -12.332031 5.328125 -12.09375 C 4.972656 -11.863281 4.332031 -11.285156 3.40625 -10.359375 L 2.875 -10.953125 C 3.976562 -12.140625 5.078125 -13.023438 6.171875 -13.609375 C 7.265625 -14.203125 8.101562 -14.5 8.6875 -14.5 C 8.894531 -14.5 9.054688 -14.445312 9.171875 -14.34375 C 9.296875 -14.25 9.359375 -14.128906 9.359375 -13.984375 C 9.359375 -13.835938 9.285156 -13.441406 9.140625 -12.796875 L 8.390625 -9.71875 C 9.554688 -11.539062 10.863281 -13.101562 12.3125 -14.40625 C 13.019531 -15.019531 13.609375 -15.328125 14.078125 -15.328125 C 14.421875 -15.328125 14.707031 -15.210938 14.9375 -14.984375 C 15.164062 -14.765625 15.28125 -14.503906 15.28125 -14.203125 C 15.28125 -13.898438 15.164062 -13.640625 14.9375 -13.421875 C 14.71875 -13.203125 14.160156 -12.941406 13.265625 -12.640625 C 12.410156 -12.359375 11.71875 -12.015625 11.1875 -11.609375 C 10.65625 -11.210938 10.070312 -10.597656 9.4375 -9.765625 C 8.800781 -8.941406 8.351562 -8.222656 8.09375 -7.609375 C 7.84375 -6.992188 7.460938 -5.570312 6.953125 -3.34375 Z M 6.171875 0 "/></g></g></g><g fill="#ffffff" fill-opacity="1"><g transform="translate(287.069679, 106.609456)"><g><path d="M 3.515625 -10.4375 L 2.921875 -11.046875 C 4.390625 -12.441406 5.554688 -13.367188 6.421875 -13.828125 C 7.296875 -14.285156 8.046875 -14.515625 8.671875 -14.515625 C 8.910156 -14.515625 9.097656 -14.460938 9.234375 -14.359375 C 9.367188 -14.253906 9.4375 -14.132812 9.4375 -14 C 9.4375 -13.894531 9.410156 -13.710938 9.359375 -13.453125 L 8.578125 -10 C 9.753906 -11.289062 11.222656 -12.5 12.984375 -13.625 C 13.929688 -14.207031 14.707031 -14.5 15.3125 -14.5 C 15.757812 -14.5 16.109375 -14.351562 16.359375 -14.0625 C 16.609375 -13.78125 16.734375 -13.367188 16.734375 -12.828125 C 16.734375 -12.472656 16.679688 -12.070312 16.578125 -11.625 C 16.398438 -10.882812 15.921875 -9.265625 15.140625 -6.765625 C 14.398438 -4.421875 14.03125 -2.863281 14.03125 -2.09375 C 14.03125 -1.863281 14.066406 -1.691406 14.140625 -1.578125 C 14.210938 -1.460938 14.3125 -1.40625 14.4375 -1.40625 C 14.769531 -1.40625 15.289062 -1.726562 16 -2.375 C 16.5 -2.832031 17.003906 -3.253906 17.515625 -3.640625 L 17.9375 -3.03125 C 16.882812 -1.851562 15.789062 -0.910156 14.65625 -0.203125 C 13.9375 0.253906 13.34375 0.484375 12.875 0.484375 C 12.4375 0.484375 12.097656 0.320312 11.859375 0 C 11.617188 -0.3125 11.5 -0.820312 11.5 -1.53125 C 11.5 -2.550781 12.132812 -5.09375 13.40625 -9.15625 C 13.789062 -10.601562 13.984375 -11.445312 13.984375 -11.6875 C 13.984375 -12.039062 13.769531 -12.21875 13.34375 -12.21875 C 12.882812 -12.21875 12.296875 -11.976562 11.578125 -11.5 C 10.503906 -10.78125 9.601562 -9.941406 8.875 -8.984375 C 8.414062 -8.359375 8.03125 -7.367188 7.71875 -6.015625 L 6.328125 -0.015625 L 3.765625 -0.015625 C 4.242188 -1.734375 4.664062 -3.378906 5.03125 -4.953125 L 6.5625 -11.5 C 6.613281 -11.757812 6.640625 -11.945312 6.640625 -12.0625 C 6.640625 -12.375 6.523438 -12.53125 6.296875 -12.53125 C 6.109375 -12.53125 5.84375 -12.40625 5.5 -12.15625 C 4.789062 -11.6875 4.128906 -11.113281 3.515625 -10.4375 Z M 3.515625 -10.4375 "/></g></g></g><g fill="#ffffff" fill-opacity="1"><g transform="translate(205.361403, 145.006085)"><g><path d="M 22.34375 -0.75 L 22.171875 0.21875 C 21.765625 0.257812 21.40625 0.28125 21.09375 0.28125 C 20.644531 0.28125 20.101562 0.242188 19.46875 0.171875 C 18.394531 0.0546875 17.710938 0 17.421875 0 C 16.941406 0 16.203125 0.0703125 15.203125 0.21875 C 15.554688 -0.675781 15.859375 -1.613281 16.109375 -2.59375 C 16.273438 -3.289062 16.457031 -4.492188 16.65625 -6.203125 C 15.3125 -6.222656 13.226562 -6.195312 10.40625 -6.125 C 7.488281 -1.675781 5.351562 1.113281 4 2.25 C 2.644531 3.394531 1.351562 3.96875 0.125 3.96875 C -0.519531 3.96875 -1 3.84375 -1.3125 3.59375 C -1.632812 3.351562 -1.796875 3.039062 -1.796875 2.65625 C -1.796875 2.351562 -1.703125 2.101562 -1.515625 1.90625 C -1.328125 1.71875 -1.097656 1.625 -0.828125 1.625 C -0.660156 1.625 -0.441406 1.648438 -0.171875 1.703125 C 0.515625 1.859375 0.972656 1.9375 1.203125 1.9375 C 1.972656 1.9375 2.820312 1.503906 3.75 0.640625 C 5.257812 -0.785156 7.492188 -3.769531 10.453125 -8.3125 C 13.804688 -13.445312 16.519531 -17.1875 18.59375 -19.53125 C 15.757812 -19.269531 13.992188 -19.023438 13.296875 -18.796875 C 12.335938 -18.492188 11.613281 -18.035156 11.125 -17.421875 C 10.644531 -16.816406 10.40625 -16.195312 10.40625 -15.5625 C 10.40625 -15.363281 10.476562 -15.070312 10.625 -14.6875 C 10.789062 -14.269531 10.875 -13.960938 10.875 -13.765625 C 10.875 -13.515625 10.773438 -13.289062 10.578125 -13.09375 C 10.378906 -12.894531 10.144531 -12.796875 9.875 -12.796875 C 9.488281 -12.796875 9.175781 -12.941406 8.9375 -13.234375 C 8.695312 -13.523438 8.578125 -13.96875 8.578125 -14.5625 C 8.578125 -15.382812 8.789062 -16.179688 9.21875 -16.953125 C 9.65625 -17.722656 10.273438 -18.367188 11.078125 -18.890625 C 11.878906 -19.421875 12.882812 -19.820312 14.09375 -20.09375 C 14.707031 -20.238281 15.796875 -20.367188 17.359375 -20.484375 C 18.710938 -20.597656 19.5625 -20.707031 19.90625 -20.8125 C 20.445312 -20.96875 20.960938 -21.257812 21.453125 -21.6875 C 21.109375 -20.28125 20.863281 -19.050781 20.71875 -18 L 19.375 -8.046875 L 18.59375 -0.921875 C 19.445312 -0.710938 20.210938 -0.609375 20.890625 -0.609375 C 21.335938 -0.609375 21.820312 -0.65625 22.34375 -0.75 Z M 16.8125 -7.484375 C 17.363281 -12.140625 17.910156 -15.539062 18.453125 -17.6875 C 17.003906 -15.757812 16.109375 -14.539062 15.765625 -14.03125 L 11.34375 -7.484375 C 12.289062 -7.453125 13.648438 -7.4375 15.421875 -7.4375 C 15.847656 -7.4375 16.3125 -7.453125 16.8125 -7.484375 Z M 16.8125 -7.484375 "/></g></g></g><g fill="#ffffff" fill-opacity="1"><g transform="translate(227.207614, 145.006085)"><g><path d="M 3.515625 -10.4375 L 2.921875 -11.046875 C 4.390625 -12.441406 5.554688 -13.367188 6.421875 -13.828125 C 7.296875 -14.285156 8.046875 -14.515625 8.671875 -14.515625 C 8.910156 -14.515625 9.097656 -14.460938 9.234375 -14.359375 C 9.367188 -14.253906 9.4375 -14.132812 9.4375 -14 C 9.4375 -13.894531 9.410156 -13.710938 9.359375 -13.453125 L 8.578125 -10 C 9.753906 -11.289062 11.222656 -12.5 12.984375 -13.625 C 13.929688 -14.207031 14.707031 -14.5 15.3125 -14.5 C 15.757812 -14.5 16.109375 -14.351562 16.359375 -14.0625 C 16.609375 -13.78125 16.734375 -13.367188 16.734375 -12.828125 C 16.734375 -12.472656 16.679688 -12.070312 16.578125 -11.625 C 16.398438 -10.882812 15.921875 -9.265625 15.140625 -6.765625 C 14.398438 -4.421875 14.03125 -2.863281 14.03125 -2.09375 C 14.03125 -1.863281 14.066406 -1.691406 14.140625 -1.578125 C 14.210938 -1.460938 14.3125 -1.40625 14.4375 -1.40625 C 14.769531 -1.40625 15.289062 -1.726562 16 -2.375 C 16.5 -2.832031 17.003906 -3.253906 17.515625 -3.640625 L 17.9375 -3.03125 C 16.882812 -1.851562 15.789062 -0.910156 14.65625 -0.203125 C 13.9375 0.253906 13.34375 0.484375 12.875 0.484375 C 12.4375 0.484375 12.097656 0.320312 11.859375 0 C 11.617188 -0.3125 11.5 -0.820312 11.5 -1.53125 C 11.5 -2.550781 12.132812 -5.09375 13.40625 -9.15625 C 13.789062 -10.601562 13.984375 -11.445312 13.984375 -11.6875 C 13.984375 -12.039062 13.769531 -12.21875 13.34375 -12.21875 C 12.882812 -12.21875 12.296875 -11.976562 11.578125 -11.5 C 10.503906 -10.78125 9.601562 -9.941406 8.875 -8.984375 C 8.414062 -8.359375 8.03125 -7.367188 7.71875 -6.015625 L 6.328125 -0.015625 L 3.765625 -0.015625 C 4.242188 -1.734375 4.664062 -3.378906 5.03125 -4.953125 L 6.5625 -11.5 C 6.613281 -11.757812 6.640625 -11.945312 6.640625 -12.0625 C 6.640625 -12.375 6.523438 -12.53125 6.296875 -12.53125 C 6.109375 -12.53125 5.84375 -12.40625 5.5 -12.15625 C 4.789062 -11.6875 4.128906 -11.113281 3.515625 -10.4375 Z M 3.515625 -10.4375 "/></g></g></g><g fill="#ffffff" fill-opacity="1"><g transform="translate(243.411654, 145.006085)"><g><path d="M 16.234375 -3.5625 L 16.71875 -2.90625 C 15.1875 -1.613281 14.046875 -0.753906 13.296875 -0.328125 C 12.265625 0.253906 11.453125 0.546875 10.859375 0.546875 C 10.578125 0.546875 10.347656 0.46875 10.171875 0.3125 C 10.003906 0.164062 9.921875 -0.00390625 9.921875 -0.203125 C 9.921875 -0.398438 9.984375 -0.722656 10.109375 -1.171875 L 10.71875 -3.265625 C 9.34375 -1.785156 8.195312 -0.78125 7.28125 -0.25 C 6.363281 0.269531 5.535156 0.53125 4.796875 0.53125 C 4.191406 0.53125 3.679688 0.265625 3.265625 -0.265625 C 2.859375 -0.796875 2.65625 -1.578125 2.65625 -2.609375 C 2.65625 -4.242188 3.210938 -6.117188 4.328125 -8.234375 C 5.441406 -10.347656 6.679688 -11.910156 8.046875 -12.921875 C 9.421875 -13.941406 10.675781 -14.453125 11.8125 -14.453125 C 12.070312 -14.453125 12.453125 -14.410156 12.953125 -14.328125 C 13.492188 -16.566406 14.007812 -18.195312 14.5 -19.21875 C 15 -20.25 15.632812 -21.132812 16.40625 -21.875 C 17.1875 -22.625 18.078125 -23.203125 19.078125 -23.609375 C 20.085938 -24.015625 21.03125 -24.21875 21.90625 -24.21875 C 22.363281 -24.21875 22.726562 -24.097656 23 -23.859375 C 23.28125 -23.617188 23.421875 -23.316406 23.421875 -22.953125 C 23.421875 -22.597656 23.289062 -22.304688 23.03125 -22.078125 C 22.78125 -21.859375 22.4375 -21.75 22 -21.75 C 21.71875 -21.75 21.1875 -21.804688 20.40625 -21.921875 C 19.625 -22.035156 19.085938 -22.09375 18.796875 -22.09375 C 18.398438 -22.09375 18.050781 -21.96875 17.75 -21.71875 C 17.445312 -21.46875 17.15625 -20.9375 16.875 -20.125 C 16.695312 -19.613281 16.28125 -17.96875 15.625 -15.1875 L 13.171875 -4.796875 C 12.890625 -3.566406 12.75 -2.753906 12.75 -2.359375 C 12.75 -1.921875 12.914062 -1.703125 13.25 -1.703125 C 13.457031 -1.703125 13.695312 -1.773438 13.96875 -1.921875 C 14.363281 -2.140625 15.117188 -2.6875 16.234375 -3.5625 Z M 12.59375 -12.4375 C 11.675781 -12.644531 11.03125 -12.75 10.65625 -12.75 C 9.882812 -12.75 9.128906 -12.445312 8.390625 -11.84375 C 7.660156 -11.238281 6.953125 -10.070312 6.265625 -8.34375 C 5.585938 -6.613281 5.25 -5.101562 5.25 -3.8125 C 5.25 -3.226562 5.40625 -2.75 5.71875 -2.375 C 6.03125 -2.007812 6.390625 -1.828125 6.796875 -1.828125 C 7.273438 -1.828125 7.828125 -2.035156 8.453125 -2.453125 C 9.328125 -3.085938 10.023438 -3.859375 10.546875 -4.765625 C 10.859375 -5.335938 11.273438 -6.742188 11.796875 -8.984375 Z M 12.59375 -12.4375 "/></g></g></g><g fill="#ffffff" fill-opacity="1"><g transform="translate(258.910425, 145.006085)"><g><path d="M 10.328125 -21.859375 C 10.679688 -21.859375 10.972656 -21.738281 11.203125 -21.5 C 11.429688 -21.269531 11.546875 -20.972656 11.546875 -20.609375 C 11.546875 -20.109375 11.367188 -19.664062 11.015625 -19.28125 C 10.671875 -18.894531 10.28125 -18.703125 9.84375 -18.703125 C 9.5 -18.703125 9.210938 -18.820312 8.984375 -19.0625 C 8.753906 -19.300781 8.640625 -19.617188 8.640625 -20.015625 C 8.640625 -20.523438 8.804688 -20.957031 9.140625 -21.3125 C 9.472656 -21.675781 9.867188 -21.859375 10.328125 -21.859375 Z M 3.546875 -10.484375 L 2.78125 -11.0625 C 3.925781 -12.320312 4.972656 -13.21875 5.921875 -13.75 C 6.867188 -14.289062 7.675781 -14.5625 8.34375 -14.5625 C 8.707031 -14.5625 8.988281 -14.476562 9.1875 -14.3125 C 9.382812 -14.15625 9.484375 -13.9375 9.484375 -13.65625 C 9.484375 -13.320312 9.109375 -11.910156 8.359375 -9.421875 C 7.140625 -5.359375 6.53125 -2.90625 6.53125 -2.0625 C 6.53125 -1.90625 6.570312 -1.769531 6.65625 -1.65625 C 6.738281 -1.550781 6.828125 -1.5 6.921875 -1.5 C 7.285156 -1.5 8.222656 -2.207031 9.734375 -3.625 L 10.40625 -2.96875 C 8.832031 -1.488281 7.6875 -0.539062 6.96875 -0.125 C 6.25 0.28125 5.660156 0.484375 5.203125 0.484375 C 4.796875 0.484375 4.472656 0.351562 4.234375 0.09375 C 4.003906 -0.15625 3.890625 -0.503906 3.890625 -0.953125 C 3.890625 -2.378906 4.75 -5.878906 6.46875 -11.453125 C 6.550781 -11.722656 6.59375 -11.957031 6.59375 -12.15625 C 6.59375 -12.382812 6.488281 -12.5 6.28125 -12.5 C 6.050781 -12.5 5.789062 -12.40625 5.5 -12.21875 C 5.207031 -12.039062 4.554688 -11.460938 3.546875 -10.484375 Z M 3.546875 -10.484375 "/></g></g></g><g fill="#ffffff" fill-opacity="1"><g transform="translate(267.356483, 145.006085)"><g><path d="M 10.546875 -14.484375 C 11.566406 -14.484375 12.351562 -14.285156 12.90625 -13.890625 C 13.46875 -13.492188 13.75 -13.039062 13.75 -12.53125 C 13.75 -12.21875 13.628906 -11.945312 13.390625 -11.71875 C 13.160156 -11.488281 12.878906 -11.375 12.546875 -11.375 C 12.328125 -11.375 12.132812 -11.421875 11.96875 -11.515625 C 11.8125 -11.617188 11.582031 -11.863281 11.28125 -12.25 C 10.71875 -13 10.164062 -13.375 9.625 -13.375 C 9.144531 -13.375 8.722656 -13.191406 8.359375 -12.828125 C 8.003906 -12.460938 7.828125 -12.007812 7.828125 -11.46875 C 7.828125 -11 7.941406 -10.539062 8.171875 -10.09375 C 8.398438 -9.65625 8.976562 -8.945312 9.90625 -7.96875 C 11.175781 -6.613281 11.8125 -5.328125 11.8125 -4.109375 C 11.8125 -2.890625 11.296875 -1.820312 10.265625 -0.90625 C 9.234375 0 7.90625 0.453125 6.28125 0.453125 C 4.914062 0.453125 3.898438 0.175781 3.234375 -0.375 C 2.566406 -0.9375 2.234375 -1.625 2.234375 -2.4375 C 2.234375 -2.84375 2.359375 -3.175781 2.609375 -3.4375 C 2.867188 -3.707031 3.179688 -3.84375 3.546875 -3.84375 C 3.867188 -3.84375 4.144531 -3.734375 4.375 -3.515625 C 4.601562 -3.304688 4.71875 -3.054688 4.71875 -2.765625 C 4.71875 -2.648438 4.703125 -2.503906 4.671875 -2.328125 C 4.660156 -2.171875 4.65625 -2.039062 4.65625 -1.9375 C 4.65625 -1.5625 4.816406 -1.242188 5.140625 -0.984375 C 5.453125 -0.710938 5.878906 -0.578125 6.421875 -0.578125 C 7.035156 -0.578125 7.578125 -0.679688 8.046875 -0.890625 C 8.515625 -1.109375 8.878906 -1.429688 9.140625 -1.859375 C 9.410156 -2.296875 9.546875 -2.722656 9.546875 -3.140625 C 9.546875 -3.554688 9.421875 -3.96875 9.171875 -4.375 C 8.929688 -4.789062 8.378906 -5.476562 7.515625 -6.4375 C 6.328125 -7.769531 5.734375 -9.046875 5.734375 -10.265625 C 5.734375 -11.390625 6.1875 -12.375 7.09375 -13.21875 C 8 -14.0625 9.148438 -14.484375 10.546875 -14.484375 Z M 10.546875 -14.484375 "/></g></g></g><g fill="#ffffff" fill-opacity="1"><g transform="translate(278.623627, 145.006085)"><g><path d="M 16.8125 -3.640625 L 17.25 -3.015625 C 16.195312 -1.835938 15.113281 -0.90625 14 -0.21875 C 13.25 0.25 12.625 0.484375 12.125 0.484375 C 11.726562 0.484375 11.40625 0.320312 11.15625 0 C 10.90625 -0.320312 10.78125 -0.820312 10.78125 -1.5 C 10.78125 -1.957031 10.875 -2.625 11.0625 -3.5 C 11.257812 -4.375 11.796875 -6.257812 12.671875 -9.15625 C 13.066406 -10.570312 13.265625 -11.398438 13.265625 -11.640625 C 13.265625 -12.035156 13.066406 -12.234375 12.671875 -12.234375 C 12.191406 -12.234375 11.59375 -11.992188 10.875 -11.515625 C 9.863281 -10.847656 8.96875 -10 8.1875 -8.96875 C 7.695312 -8.300781 7.300781 -7.3125 7 -6 L 5.625 -0.015625 L 3.0625 -0.015625 C 3.613281 -2.023438 4.035156 -3.664062 4.328125 -4.9375 L 6.859375 -15.984375 C 7.316406 -18.015625 7.921875 -19.578125 8.671875 -20.671875 C 9.429688 -21.765625 10.414062 -22.640625 11.625 -23.296875 C 12.832031 -23.953125 14.023438 -24.28125 15.203125 -24.28125 C 15.703125 -24.28125 16.09375 -24.15625 16.375 -23.90625 C 16.664062 -23.664062 16.8125 -23.363281 16.8125 -23 C 16.8125 -22.6875 16.671875 -22.410156 16.390625 -22.171875 C 16.109375 -21.941406 15.726562 -21.828125 15.25 -21.828125 C 14.96875 -21.828125 14.609375 -21.859375 14.171875 -21.921875 C 13.191406 -22.054688 12.507812 -22.125 12.125 -22.125 C 11.601562 -22.125 11.175781 -21.910156 10.84375 -21.484375 C 10.507812 -21.066406 10.164062 -20.070312 9.8125 -18.5 L 7.875 -10 C 9.238281 -11.425781 10.722656 -12.632812 12.328125 -13.625 C 13.273438 -14.207031 14.035156 -14.5 14.609375 -14.5 C 15.054688 -14.5 15.40625 -14.363281 15.65625 -14.09375 C 15.90625 -13.820312 16.03125 -13.445312 16.03125 -12.96875 C 16.03125 -12.582031 15.984375 -12.191406 15.890625 -11.796875 C 15.742188 -11.117188 15.394531 -9.894531 14.84375 -8.125 C 14.101562 -5.664062 13.664062 -4.140625 13.53125 -3.546875 C 13.394531 -2.953125 13.328125 -2.414062 13.328125 -1.9375 C 13.328125 -1.757812 13.359375 -1.625 13.421875 -1.53125 C 13.484375 -1.4375 13.582031 -1.390625 13.71875 -1.390625 C 13.988281 -1.390625 14.503906 -1.71875 15.265625 -2.375 C 15.679688 -2.726562 16.195312 -3.148438 16.8125 -3.640625 Z M 16.8125 -3.640625 "/></g></g></g><g fill="#ffffff" fill-opacity="1"><g transform="translate(294.122399, 145.006085)"><g><path d="M 14.734375 -14.765625 L 15.859375 -15 L 14.578125 -10.65625 C 14.054688 -8.914062 13.566406 -6.914062 13.109375 -4.65625 C 12.859375 -3.4375 12.734375 -2.644531 12.734375 -2.28125 C 12.734375 -1.925781 12.875 -1.75 13.15625 -1.75 C 13.34375 -1.75 13.632812 -1.867188 14.03125 -2.109375 C 14.75 -2.535156 15.4375 -3.066406 16.09375 -3.703125 L 16.640625 -3.03125 C 15.328125 -1.832031 14.488281 -1.109375 14.125 -0.859375 C 13.394531 -0.359375 12.695312 0.015625 12.03125 0.265625 C 11.59375 0.421875 11.164062 0.5 10.75 0.5 C 10.457031 0.5 10.234375 0.429688 10.078125 0.296875 C 9.929688 0.160156 9.859375 -0.0390625 9.859375 -0.3125 C 9.859375 -0.476562 9.90625 -0.710938 10 -1.015625 L 10.6875 -3.359375 C 9.695312 -2.171875 8.519531 -1.15625 7.15625 -0.3125 C 6.320312 0.21875 5.554688 0.484375 4.859375 0.484375 C 4.191406 0.484375 3.679688 0.25 3.328125 -0.21875 C 2.835938 -0.851562 2.59375 -1.679688 2.59375 -2.703125 C 2.59375 -3.921875 2.914062 -5.273438 3.5625 -6.765625 C 4.21875 -8.253906 5.085938 -9.601562 6.171875 -10.8125 C 7.265625 -12.03125 8.414062 -12.925781 9.625 -13.5 C 10.550781 -13.9375 11.742188 -14.15625 13.203125 -14.15625 C 13.566406 -14.15625 13.9375 -14.132812 14.3125 -14.09375 Z M 12.59375 -12.125 C 11.976562 -12.25 11.457031 -12.3125 11.03125 -12.3125 C 10 -12.3125 9.097656 -12.023438 8.328125 -11.453125 C 7.554688 -10.890625 6.84375 -9.867188 6.1875 -8.390625 C 5.53125 -6.921875 5.203125 -5.453125 5.203125 -3.984375 C 5.203125 -3.210938 5.332031 -2.65625 5.59375 -2.3125 C 5.851562 -1.96875 6.195312 -1.796875 6.625 -1.796875 C 7.414062 -1.796875 8.265625 -2.222656 9.171875 -3.078125 C 10.078125 -3.929688 10.742188 -5.160156 11.171875 -6.765625 Z M 12.59375 -12.125 "/></g></g></g><g fill="#ffffff" fill-opacity="1"><g transform="translate(308.915896, 145.006085)"><g><path d="M 3.515625 -10.4375 L 2.921875 -11.046875 C 4.390625 -12.441406 5.554688 -13.367188 6.421875 -13.828125 C 7.296875 -14.285156 8.046875 -14.515625 8.671875 -14.515625 C 8.910156 -14.515625 9.097656 -14.460938 9.234375 -14.359375 C 9.367188 -14.253906 9.4375 -14.132812 9.4375 -14 C 9.4375 -13.894531 9.410156 -13.710938 9.359375 -13.453125 L 8.578125 -10 C 9.753906 -11.289062 11.222656 -12.5 12.984375 -13.625 C 13.929688 -14.207031 14.707031 -14.5 15.3125 -14.5 C 15.757812 -14.5 16.109375 -14.351562 16.359375 -14.0625 C 16.609375 -13.78125 16.734375 -13.367188 16.734375 -12.828125 C 16.734375 -12.472656 16.679688 -12.070312 16.578125 -11.625 C 16.398438 -10.882812 15.921875 -9.265625 15.140625 -6.765625 C 14.398438 -4.421875 14.03125 -2.863281 14.03125 -2.09375 C 14.03125 -1.863281 14.066406 -1.691406 14.140625 -1.578125 C 14.210938 -1.460938 14.3125 -1.40625 14.4375 -1.40625 C 14.769531 -1.40625 15.289062 -1.726562 16 -2.375 C 16.5 -2.832031 17.003906 -3.253906 17.515625 -3.640625 L 17.9375 -3.03125 C 16.882812 -1.851562 15.789062 -0.910156 14.65625 -0.203125 C 13.9375 0.253906 13.34375 0.484375 12.875 0.484375 C 12.4375 0.484375 12.097656 0.320312 11.859375 0 C 11.617188 -0.3125 11.5 -0.820312 11.5 -1.53125 C 11.5 -2.550781 12.132812 -5.09375 13.40625 -9.15625 C 13.789062 -10.601562 13.984375 -11.445312 13.984375 -11.6875 C 13.984375 -12.039062 13.769531 -12.21875 13.34375 -12.21875 C 12.882812 -12.21875 12.296875 -11.976562 11.578125 -11.5 C 10.503906 -10.78125 9.601562 -9.941406 8.875 -8.984375 C 8.414062 -8.359375 8.03125 -7.367188 7.71875 -6.015625 L 6.328125 -0.015625 L 3.765625 -0.015625 C 4.242188 -1.734375 4.664062 -3.378906 5.03125 -4.953125 L 6.5625 -11.5 C 6.613281 -11.757812 6.640625 -11.945312 6.640625 -12.0625 C 6.640625 -12.375 6.523438 -12.53125 6.296875 -12.53125 C 6.109375 -12.53125 5.84375 -12.40625 5.5 -12.15625 C 4.789062 -11.6875 4.128906 -11.113281 3.515625 -10.4375 Z M 3.515625 -10.4375 "/></g></g></g></svg>